<svg xmlns="http://www.w3.org/2000/svg" xmlns:xlink="http://www.w3.org/1999/xlink" contentStyleType="text/css" height="701px" preserveAspectRatio="none" style="width:1236px;height:701px;background:#FFFFFF;" version="1.1" viewBox="0 0 1236 701" width="1236px" zoomAndPan="magnify"><defs/><g><!--cluster d77d5e503ad1439f585ac494268b351b--><g id="cluster_d77d5e503ad1439f585ac494268b351b"><polygon fill="none" points="16,32.3,26,22.3,422,22.3,422,582.97,412,592.97,16,592.97,16,32.3" style="stroke:#181818;stroke-width:1.0;"/><line style="stroke:#181818;stroke-width:1.0;" x1="412" x2="422" y1="32.3" y2="22.3"/><line style="stroke:#181818;stroke-width:1.0;" x1="16" x2="412" y1="32.3" y2="32.3"/><line style="stroke:#181818;stroke-width:1.0;" x1="412" x2="412" y1="32.3" y2="592.97"/><text fill="#000000" font-family="sans-serif" font-size="14" font-weight="bold" lengthAdjust="spacing" textLength="21" x="204.5" y="48.2951">Db</text></g><!--cluster 0fea6a13c52b4d4725368f24b045ca84--><g id="cluster_0fea6a13c52b4d4725368f24b045ca84"><polygon fill="none" points="446,48.6,456,38.6,676,38.6,676,582.97,666,592.97,446,592.97,446,48.6" style="stroke:#181818;stroke-width:1.0;"/><line style="stroke:#181818;stroke-width:1.0;" x1="666" x2="676" y1="48.6" y2="38.6"/><line style="stroke:#181818;stroke-width:1.0;" x1="446" x2="666" y1="48.6" y2="48.6"/><line style="stroke:#181818;stroke-width:1.0;" x1="666" x2="666" y1="48.6" y2="592.97"/><text fill="#000000" font-family="sans-serif" font-size="14" font-weight="bold" lengthAdjust="spacing" textLength="49" x="532.5" y="64.5951">Cache</text></g><!--cluster 2567a5ec9705eb7ac2c984033e06189d--><g id="cluster_2567a5ec9705eb7ac2c984033e06189d"><polygon fill="none" points="762,16,772,6,1168,6,1168,582.97,1158,592.97,762,592.97,762,16" style="stroke:#181818;stroke-width:1.0;"/><line style="stroke:#181818;stroke-width:1.0;" x1="1158" x2="1168" y1="16" y2="6"/><line style="stroke:#181818;stroke-width:1.0;" x1="762" x2="1158" y1="16" y2="16"/><line style="stroke:#181818;stroke-width:1.0;" x1="1158" x2="1158" y1="16" y2="592.97"/><text fill="#000000" font-family="sans-serif" font-size="14" font-weight="bold" lengthAdjust="spacing" textLength="35" x="943.5" y="31.9951">Web</text></g><!--entity 355aeb7ac3f8fa43e8d94fbf0e4b8d6c--><g id="elem_355aeb7ac3f8fa43e8d94fbf0e4b8d6c"><rect fill="#F1F1F1" height="144.0781" rx="2.5" ry="2.5" style="stroke:#181818;stroke-width:0.5;" width="375" x="31.5" y="62.3"/><rect fill="#F1F1F1" height="10" style="stroke:#181818;stroke-width:0.5;" width="15" x="386.5" y="67.3"/><rect fill="#F1F1F1" height="2" style="stroke:#181818;stroke-width:0.5;" width="4" x="384.5" y="69.3"/><rect fill="#F1F1F1" height="2" style="stroke:#181818;stroke-width:0.5;" width="4" x="384.5" y="73.3"/><text fill="#000000" font-family="sans-serif" font-size="14" font-weight="bold" lengthAdjust="spacing" textLength="20" x="46.5" y="95.2951">db</text><text fill="#000000" font-family="sans-serif" font-size="14" lengthAdjust="spacing" textLength="4" x="46.5" y="111.592">&#160;</text><text fill="#000000" font-family="sans-serif" font-size="14" lengthAdjust="spacing" textLength="195" x="46.5" y="127.8889">image: postgres:14.1-alpine</text><text fill="#000000" font-family="sans-serif" font-size="14" lengthAdjust="spacing" textLength="250" x="46.5" y="144.1857">environment: POSTGRES_DB=travel</text><text fill="#000000" font-family="sans-serif" font-size="14" lengthAdjust="spacing" textLength="292" x="46.5" y="160.4826">environment: POSTGRES_USER=postgres</text><text fill="#000000" font-family="sans-serif" font-size="14" lengthAdjust="spacing" textLength="335" x="46.5" y="176.7795">environment: POSTGRES_PASSWORD=postgres</text><text fill="#000000" font-family="sans-serif" font-size="14" lengthAdjust="spacing" textLength="4" x="46.5" y="193.0764">&#160;</text></g><!--entity d5baecb173d637b4e1f821d6b00b6f89--><g id="elem_d5baecb173d637b4e1f821d6b00b6f89"><rect fill="#F1F1F1" height="39.2969" rx="2.5" ry="2.5" style="stroke:#181818;stroke-width:0.5;" width="189" x="124.5" y="537.68"/><polygon fill="#F1F1F1" points="296.5,542.68,296.5,556.68,308.5,556.68,308.5,548.68,302.5,542.68,296.5,542.68" style="stroke:#181818;stroke-width:0.5;"/><line style="stroke:#181818;stroke-width:0.5;" x1="302.5" x2="302.5" y1="542.68" y2="548.68"/><line style="stroke:#181818;stroke-width:0.5;" x1="308.5" x2="302.5" y1="548.68" y2="548.68"/><text fill="#000000" font-family="sans-serif" font-size="14" lengthAdjust="spacing" textLength="159" x="134.5" y="563.6751">/var/lib/postgresql/data</text></g><!--entity 8350c79911205511c52fed4320dde103--><g id="elem_8350c79911205511c52fed4320dde103"><rect fill="#F1F1F1" height="111.4844" rx="2.5" ry="2.5" style="stroke:#181818;stroke-width:0.5;" width="198" x="462" y="78.6"/><rect fill="#F1F1F1" height="10" style="stroke:#181818;stroke-width:0.5;" width="15" x="640" y="83.6"/><rect fill="#F1F1F1" height="2" style="stroke:#181818;stroke-width:0.5;" width="4" x="638" y="85.6"/><rect fill="#F1F1F1" height="2" style="stroke:#181818;stroke-width:0.5;" width="4" x="638" y="89.6"/><text fill="#000000" font-family="sans-serif" font-size="14" font-weight="bold" lengthAdjust="spacing" textLength="47" x="477" y="111.5951">cache</text><text fill="#000000" font-family="sans-serif" font-size="14" lengthAdjust="spacing" textLength="4" x="477" y="127.892">&#160;</text><text fill="#000000" font-family="sans-serif" font-size="14" lengthAdjust="spacing" textLength="158" x="477" y="144.1889">image: redis:7.0-alpine</text><text fill="#000000" font-family="sans-serif" font-size="14" lengthAdjust="spacing" textLength="99" x="477" y="160.4857">restart: always</text><text fill="#000000" font-family="sans-serif" font-size="14" lengthAdjust="spacing" textLength="4" x="477" y="176.7826">&#160;</text></g><!--entity 6f8354821bb3df04c2eb5cab5157dcf5--><g id="elem_6f8354821bb3df04c2eb5cab5157dcf5"><ellipse cx="628" cy="312.68" fill="#F1F1F1" rx="8" ry="8" style="stroke:#181818;stroke-width:0.5;"/><text fill="#000000" font-family="sans-serif" font-size="14" lengthAdjust="spacing" textLength="36" x="610" y="342.6751">6379</text></g><!--entity a0641724395b928e2de8f4e2cf3662bb--><g id="elem_a0641724395b928e2de8f4e2cf3662bb"><rect fill="#F1F1F1" height="39.2969" rx="2.5" ry="2.5" style="stroke:#181818;stroke-width:0.5;" width="65" x="528.5" y="537.68"/><polygon fill="#F1F1F1" points="576.5,542.68,576.5,556.68,588.5,556.68,588.5,548.68,582.5,542.68,576.5,542.68" style="stroke:#181818;stroke-width:0.5;"/><line style="stroke:#181818;stroke-width:0.5;" x1="582.5" x2="582.5" y1="542.68" y2="548.68"/><line style="stroke:#181818;stroke-width:0.5;" x1="588.5" x2="582.5" y1="548.68" y2="548.68"/><text fill="#000000" font-family="sans-serif" font-size="14" lengthAdjust="spacing" textLength="35" x="538.5" y="563.6751">/data</text></g><!--entity 04a565d19766ebe0348853b17c395bd1--><g id="elem_04a565d19766ebe0348853b17c395bd1"><rect fill="#F1F1F1" height="176.6719" rx="2.5" ry="2.5" style="stroke:#181818;stroke-width:0.5;" width="375" x="777.5" y="46"/><rect fill="#F1F1F1" height="10" style="stroke:#181818;stroke-width:0.5;" width="15" x="1132.5" y="51"/><rect fill="#F1F1F1" height="2" style="stroke:#181818;stroke-width:0.5;" width="4" x="1130.5" y="53"/><rect fill="#F1F1F1" height="2" style="stroke:#181818;stroke-width:0.5;" width="4" x="1130.5" y="57"/><text fill="#000000" font-family="sans-serif" font-size="14" font-weight="bold" lengthAdjust="spacing" textLength="34" x="792.5" y="78.9951">web</text><text fill="#000000" font-family="sans-serif" font-size="14" lengthAdjust="spacing" textLength="4" x="792.5" y="95.292">&#160;</text><text fill="#000000" font-family="sans-serif" font-size="14" lengthAdjust="spacing" textLength="99" x="792.5" y="111.5889">restart: always</text><text fill="#000000" font-family="sans-serif" font-size="14" lengthAdjust="spacing" textLength="269" x="792.5" y="127.8857">environment: POSTGRES_NAME=travel</text><text fill="#000000" font-family="sans-serif" font-size="14" lengthAdjust="spacing" textLength="292" x="792.5" y="144.1826">environment: POSTGRES_USER=postgres</text><text fill="#000000" font-family="sans-serif" font-size="14" lengthAdjust="spacing" textLength="335" x="792.5" y="160.4795">environment: POSTGRES_PASSWORD=postgres</text><text fill="#000000" font-family="sans-serif" font-size="14" lengthAdjust="spacing" textLength="238" x="792.5" y="176.7764">environment: REDIS_HOST=cache</text><text fill="#000000" font-family="sans-serif" font-size="14" lengthAdjust="spacing" textLength="232" x="792.5" y="193.0732">environment: REDIS_PORT=6379</text><text fill="#000000" font-family="sans-serif" font-size="14" lengthAdjust="spacing" textLength="4" x="792.5" y="209.3701">&#160;</text></g><!--entity fd433df176955d196b161b0a41a19970--><g id="elem_fd433df176955d196b161b0a41a19970"><ellipse cx="1076" cy="312.68" fill="#F1F1F1" rx="8" ry="8" style="stroke:#181818;stroke-width:0.5;"/><text fill="#000000" font-family="sans-serif" font-size="14" lengthAdjust="spacing" textLength="36" x="1058" y="342.6751">8000</text></g><!--entity 874f49994a1f56f4ba4a4da89f34713d--><g id="elem_874f49994a1f56f4ba4a4da89f34713d"><rect fill="#F1F1F1" height="39.2969" rx="2.5" ry="2.5" style="stroke:#181818;stroke-width:0.5;" width="61" x="934.5" y="537.68"/><polygon fill="#F1F1F1" points="978.5,542.68,978.5,556.68,990.5,556.68,990.5,548.68,984.5,542.68,978.5,542.68" style="stroke:#181818;stroke-width:0.5;"/><line style="stroke:#181818;stroke-width:0.5;" x1="984.5" x2="984.5" y1="542.68" y2="548.68"/><line style="stroke:#181818;stroke-width:0.5;" x1="990.5" x2="984.5" y1="548.68" y2="548.68"/><text fill="#000000" font-family="sans-serif" font-size="14" lengthAdjust="spacing" textLength="31" x="944.5" y="563.6751">/app</text></g><!--entity 8f43cdaa51c57c85a87f1e538692f2cc--><g id="elem_8f43cdaa51c57c85a87f1e538692f2cc"><rect fill="#F1F1F1" height="39.2969" rx="2.5" ry="2.5" style="stroke:#181818;stroke-width:0.5;" width="92" x="173" y="655.97"/><polygon fill="#F1F1F1" points="248,660.97,248,674.97,260,674.97,260,666.97,254,660.97,248,660.97" style="stroke:#181818;stroke-width:0.5;"/><line style="stroke:#181818;stroke-width:0.5;" x1="254" x2="254" y1="660.97" y2="666.97"/><line style="stroke:#181818;stroke-width:0.5;" x1="260" x2="254" y1="666.97" y2="666.97"/><text fill="#000000" font-family="sans-serif" font-size="14" lengthAdjust="spacing" textLength="62" x="183" y="681.9651">./data/db</text></g><!--entity 3c138af7067df82c4c4964d42878edc6--><g id="elem_3c138af7067df82c4c4964d42878edc6"><rect fill="#F1F1F1" height="39.2969" rx="2.5" ry="2.5" style="stroke:#181818;stroke-width:0.5;" width="72" x="525" y="655.97"/><polygon fill="#F1F1F1" points="580,660.97,580,674.97,592,674.97,592,666.97,586,660.97,580,660.97" style="stroke:#181818;stroke-width:0.5;"/><line style="stroke:#181818;stroke-width:0.5;" x1="586" x2="586" y1="660.97" y2="666.97"/><line style="stroke:#181818;stroke-width:0.5;" x1="592" x2="586" y1="666.97" y2="666.97"/><text fill="#000000" font-family="sans-serif" font-size="14" lengthAdjust="spacing" textLength="42" x="535" y="681.9651">cache</text></g><!--entity 58b9e70b65a77700ba66e9c64d6b9f89--><g id="elem_58b9e70b65a77700ba66e9c64d6b9f89"><rect fill="#F1F1F1" height="39.2969" rx="2.5" ry="2.5" style="stroke:#181818;stroke-width:0.5;" width="34" x="948" y="655.97"/><polygon fill="#F1F1F1" points="965,660.97,965,674.97,977,674.97,977,666.97,971,660.97,965,660.97" style="stroke:#181818;stroke-width:0.5;"/><line style="stroke:#181818;stroke-width:0.5;" x1="971" x2="971" y1="660.97" y2="666.97"/><line style="stroke:#181818;stroke-width:0.5;" x1="977" x2="971" y1="666.97" y2="666.97"/><text fill="#000000" font-family="sans-serif" font-size="14" lengthAdjust="spacing" textLength="4" x="958" y="681.9651">.</text></g><!--entity c896127ab1831787795a6fc7c8465c9a--><g id="elem_c896127ab1831787795a6fc7c8465c9a"><ellipse cx="719" cy="447.68" fill="#F1F1F1" rx="8" ry="8" style="stroke:#181818;stroke-width:0.5;"/><text fill="#000000" font-family="sans-serif" font-size="14" lengthAdjust="spacing" textLength="36" x="701" y="477.6751">6379</text></g><!--entity 1624c420083928ef3e240dd88f2e52f0--><g id="elem_1624c420083928ef3e240dd88f2e52f0"><ellipse cx="1211" cy="447.68" fill="#F1F1F1" rx="8" ry="8" style="stroke:#181818;stroke-width:0.5;"/><text fill="#000000" font-family="sans-serif" font-size="14" lengthAdjust="spacing" textLength="36" x="1193" y="477.6751">8000</text></g><!--link d5baecb173d637b4e1f821d6b00b6f89 to 8f43cdaa51c57c85a87f1e538692f2cc--><g id="link_d5baecb173d637b4e1f821d6b00b6f89_8f43cdaa51c57c85a87f1e538692f2cc"><path codeLine="45" d="M219,577.27 C219,598.89 219,634.06 219,655.69 " fill="none" id="d5baecb173d637b4e1f821d6b00b6f89-8f43cdaa51c57c85a87f1e538692f2cc" style="stroke:#181818;stroke-width:1.0;"/><text fill="#000000" font-family="sans-serif" font-size="13" lengthAdjust="spacing" textLength="14" x="220" y="622.0369">rw</text></g><!--link 355aeb7ac3f8fa43e8d94fbf0e4b8d6c to d5baecb173d637b4e1f821d6b00b6f89--><g id="link_355aeb7ac3f8fa43e8d94fbf0e4b8d6c_d5baecb173d637b4e1f821d6b00b6f89"><path codeLine="46" d="M219,206.75 C219,305.98 219,473.86 219,531.3 " fill="none" id="355aeb7ac3f8fa43e8d94fbf0e4b8d6c-to-d5baecb173d637b4e1f821d6b00b6f89" style="stroke:#181818;stroke-width:1.0;stroke-dasharray:7.0,7.0;"/><polygon fill="#181818" points="219,537.3,223,528.3,219,532.3,215,528.3,219,537.3" style="stroke:#181818;stroke-width:1.0;"/><text fill="#000000" font-family="sans-serif" font-size="13" lengthAdjust="spacing" textLength="23" x="220" y="384.7469">use</text></g><!--link 8350c79911205511c52fed4320dde103 to 6f8354821bb3df04c2eb5cab5157dcf5--><g id="link_8350c79911205511c52fed4320dde103_6f8354821bb3df04c2eb5cab5157dcf5"><path codeLine="47" d="M581.83,190.17 C597.5,231.42 617.52,284.08 625,303.78 " fill="none" id="8350c79911205511c52fed4320dde103-6f8354821bb3df04c2eb5cab5157dcf5" style="stroke:#181818;stroke-width:1.0;"/></g><!--link 6f8354821bb3df04c2eb5cab5157dcf5 to c896127ab1831787795a6fc7c8465c9a--><g id="link_6f8354821bb3df04c2eb5cab5157dcf5_c896127ab1831787795a6fc7c8465c9a"><path codeLine="48" d="M633.42,321.6 C649.64,345.31 697.69,415.53 713.72,438.96 " fill="none" id="6f8354821bb3df04c2eb5cab5157dcf5-c896127ab1831787795a6fc7c8465c9a" style="stroke:#181818;stroke-width:1.0;"/></g><!--link a0641724395b928e2de8f4e2cf3662bb to 3c138af7067df82c4c4964d42878edc6--><g id="link_a0641724395b928e2de8f4e2cf3662bb_3c138af7067df82c4c4964d42878edc6"><path codeLine="49" d="M561,577.27 C561,598.89 561,634.06 561,655.69 " fill="none" id="a0641724395b928e2de8f4e2cf3662bb-3c138af7067df82c4c4964d42878edc6" style="stroke:#181818;stroke-width:1.0;"/><text fill="#000000" font-family="sans-serif" font-size="13" lengthAdjust="spacing" textLength="14" x="562" y="622.0369">rw</text></g><!--link 8350c79911205511c52fed4320dde103 to a0641724395b928e2de8f4e2cf3662bb--><g id="link_8350c79911205511c52fed4320dde103_a0641724395b928e2de8f4e2cf3662bb"><path codeLine="50" d="M561,190.38 C561,285.54 561,470.5 561,531.28 " fill="none" id="8350c79911205511c52fed4320dde103-to-a0641724395b928e2de8f4e2cf3662bb" style="stroke:#181818;stroke-width:1.0;stroke-dasharray:7.0,7.0;"/><polygon fill="#181818" points="561,537.28,565,528.28,561,532.28,557,528.28,561,537.28" style="stroke:#181818;stroke-width:1.0;"/><text fill="#000000" font-family="sans-serif" font-size="13" lengthAdjust="spacing" textLength="23" x="562" y="384.7469">use</text></g><!--link 04a565d19766ebe0348853b17c395bd1 to fd433df176955d196b161b0a41a19970--><g id="link_04a565d19766ebe0348853b17c395bd1_fd433df176955d196b161b0a41a19970"><path codeLine="51" d="M1020.17,222.99 C1041.07,256.18 1062.02,289.47 1071.19,304.04 " fill="none" id="04a565d19766ebe0348853b17c395bd1-fd433df176955d196b161b0a41a19970" style="stroke:#181818;stroke-width:1.0;"/></g><!--link fd433df176955d196b161b0a41a19970 to 1624c420083928ef3e240dd88f2e52f0--><g id="link_fd433df176955d196b161b0a41a19970_1624c420083928ef3e240dd88f2e52f0"><path codeLine="52" d="M1084.04,321.6 C1108.11,345.31 1179.38,415.53 1203.17,438.96 " fill="none" id="fd433df176955d196b161b0a41a19970-1624c420083928ef3e240dd88f2e52f0" style="stroke:#181818;stroke-width:1.0;"/></g><!--link 874f49994a1f56f4ba4a4da89f34713d to 58b9e70b65a77700ba66e9c64d6b9f89--><g id="link_874f49994a1f56f4ba4a4da89f34713d_58b9e70b65a77700ba66e9c64d6b9f89"><path codeLine="53" d="M965,577.27 C965,598.89 965,634.06 965,655.69 " fill="none" id="874f49994a1f56f4ba4a4da89f34713d-58b9e70b65a77700ba66e9c64d6b9f89" style="stroke:#181818;stroke-width:1.0;"/><text fill="#000000" font-family="sans-serif" font-size="13" lengthAdjust="spacing" textLength="14" x="966" y="622.0369">rw</text></g><!--link 04a565d19766ebe0348853b17c395bd1 to 874f49994a1f56f4ba4a4da89f34713d--><g id="link_04a565d19766ebe0348853b17c395bd1_874f49994a1f56f4ba4a4da89f34713d"><path codeLine="54" d="M965,223.08 C965,324.05 965,476.94 965,531.33 " fill="none" id="04a565d19766ebe0348853b17c395bd1-to-874f49994a1f56f4ba4a4da89f34713d" style="stroke:#181818;stroke-width:1.0;stroke-dasharray:7.0,7.0;"/><polygon fill="#181818" points="965,537.33,969,528.33,965,532.33,961,528.33,965,537.33" style="stroke:#181818;stroke-width:1.0;"/><text fill="#000000" font-family="sans-serif" font-size="13" lengthAdjust="spacing" textLength="23" x="966" y="384.7469">use</text></g><!--SRC=[jLH9RnCn5BxFhnZb196QU7jU8WMfa0WuGAkag0U4gcVxkKJAHX9Q4EA_uvacROAeVEBijtsRSJvVtIzcFsRBssgvYbHtHhvJuxQEnaGWO18ZLz8bi811EIMqzHAuhtzLTLWjrgibBNUr143o1eDCDg6IPADJoIT6ojkeG_svwdQZxtQhQhR0MnhKwzLsTxkXxO2h7Z_3-Ngsf8gMTxFDQhd88mVrvSNqwkraFBqPlHxkDdX7ysVUFqt7a-5XtZCrb-VJwVN5PFHKLtsfSBER9GoxkjE_mqr_FlFzm_EtUJ_Y3X-e08yKF3SoQccy8fwiu55xnhnErbM_zzIzmV2LsXQM23Lo6K1u5PKH8BLDGdcc8A1Lf-nP2ImOvpWN383pt9KeAYbOZCIPRDaBpV0Z0ZSKPzk1wR43UVdgNKOqg75-ZpzRW2zUrfryicjlogTAKFboxsLCJ0L1FX_ZWOE98S4n7O_OaMd5ZSWE0E-49H799aKY9AcryFuH-pKz-4Q0DWWKd67GEa84PnMJafZcriLJv4mXQ8ZS6Qt94vFAMf2Pwj0iZBn5Va-jSVx6zs-XFvv_6FyFkvpKJSQZzzERTxbwsChohzVBYydLi27_88HbZBKKfInjLe0RxQ31hZtNt3DK7BdBl1qBWUjrssEDIievfv0dq4bvLAWYMfUaCbp6hCDJLw_LhnyV5CbwoH0H8VlAX1nZQn8da5OxaKG8HutXqS0oS6an6QPDp6uFAcTVPoSBQop5e8-tjGrWlIEJ0m5eZCd9mAoe2xb7UzU4vCIBmJhDXK7FhUJ66kC0TGhvFAKXE3mbZ6kHzml6h6myc2G9bQDXSw8eHuLLfOJMP_6io4Czg3kR-qvL_CjwlTZhlIf-2ysyxrlgLCLuDzSLqragQASKUItbkPrI4l_0L17OdgdYqWDJnU-WkQuOdr91EwNegLBYsYabrn-OAWBRCrLSkcVg3m00]--></g></svg>