<svg xmlns="http://www.w3.org/2000/svg" xmlns:xlink="http://www.w3.org/1999/xlink" contentStyleType="text/css" height="796px" preserveAspectRatio="none" style="width:1964px;height:796px;background:#FFFFFF;" version="1.1" viewBox="0 0 1964 796" width="1964px" zoomAndPan="magnify"><defs/><g><!--cluster ac0b1d413e62719fabadeacd6df654bf--><g id="cluster_ac0b1d413e62719fabadeacd6df654bf"><path d="M1360.5,89.08 L1507.5,89.08 A3.75,3.75 0 0 1 1510,91.58 L1517,111.3769 L1580.5,111.3769 A2.5,2.5 0 0 1 1583,113.8769 L1583,216.47 A2.5,2.5 0 0 1 1580.5,218.97 L1360.5,218.97 A2.5,2.5 0 0 1 1358,216.47 L1358,91.58 A2.5,2.5 0 0 1 1360.5,89.08 " fill="none" style="stroke:#000000;stroke-width:1.5;"/><line style="stroke:#000000;stroke-width:1.5;" x1="1358" x2="1517" y1="111.3769" y2="111.3769"/><text fill="#000000" font-family="sans-serif" font-size="14" font-weight="bold" lengthAdjust="spacing" textLength="146" x="1362" y="104.0751">TravelAndLogistic/</text></g><!--cluster 76d4ea181de09cefab08f5574850a842--><g id="cluster_76d4ea181de09cefab08f5574850a842"><path d="M8.5,89.08 L63.5,89.08 A3.75,3.75 0 0 1 66,91.58 L73,111.3769 L1331.5,111.3769 A2.5,2.5 0 0 1 1334,113.8769 L1334,787.03 A2.5,2.5 0 0 1 1331.5,789.53 L8.5,789.53 A2.5,2.5 0 0 1 6,787.03 L6,91.58 A2.5,2.5 0 0 1 8.5,89.08 " fill="none" style="stroke:#000000;stroke-width:1.5;"/><line style="stroke:#000000;stroke-width:1.5;" x1="6" x2="73" y1="111.3769" y2="111.3769"/><text fill="#000000" font-family="sans-serif" font-size="14" font-weight="bold" lengthAdjust="spacing" textLength="54" x="10" y="104.0751">Travel/</text></g><!--cluster bac573eda4f0bff988efb0ba0e49126c--><g id="cluster_bac573eda4f0bff988efb0ba0e49126c"><path d="M586.5,242.97 L632.5,242.97 A3.75,3.75 0 0 1 635,245.47 L642,265.2669 L868.5,265.2669 A2.5,2.5 0 0 1 871,267.7669 L871,370.36 A2.5,2.5 0 0 1 868.5,372.86 L586.5,372.86 A2.5,2.5 0 0 1 584,370.36 L584,245.47 A2.5,2.5 0 0 1 586.5,242.97 " fill="none" style="stroke:#000000;stroke-width:1.5;"/><line style="stroke:#000000;stroke-width:1.5;" x1="584" x2="642" y1="265.2669" y2="265.2669"/><text fill="#000000" font-family="sans-serif" font-size="14" font-weight="bold" lengthAdjust="spacing" textLength="45" x="588" y="257.9651">tests/</text></g><!--cluster 08bd120a97f332846c057d538c6dfffd--><g id="cluster_08bd120a97f332846c057d538c6dfffd"><path d="M1410.5,242.97 L1479.5,242.97 A3.75,3.75 0 0 1 1482,245.47 L1489,265.2669 L1954.5,265.2669 A2.5,2.5 0 0 1 1957,267.7669 L1957,648.14 A2.5,2.5 0 0 1 1954.5,650.64 L1410.5,650.64 A2.5,2.5 0 0 1 1408,648.14 L1408,245.47 A2.5,2.5 0 0 1 1410.5,242.97 " fill="none" style="stroke:#000000;stroke-width:1.5;"/><line style="stroke:#000000;stroke-width:1.5;" x1="1408" x2="1489" y1="265.2669" y2="265.2669"/><text fill="#000000" font-family="sans-serif" font-size="14" font-weight="bold" lengthAdjust="spacing" textLength="68" x="1412" y="257.9651">account/</text></g><!--entity 43eae632cc23ce83e3a77a114e02da4d--><g id="elem_43eae632cc23ce83e3a77a114e02da4d"><rect fill="#F1F1F1" height="78.8906" rx="2.5" ry="2.5" style="stroke:#181818;stroke-width:0.5;" width="70" x="1497" y="124.08"/><rect fill="#F1F1F1" height="10" style="stroke:#181818;stroke-width:0.5;" width="15" x="1547" y="129.08"/><rect fill="#F1F1F1" height="2" style="stroke:#181818;stroke-width:0.5;" width="4" x="1545" y="131.08"/><rect fill="#F1F1F1" height="2" style="stroke:#181818;stroke-width:0.5;" width="4" x="1545" y="135.08"/><text fill="#000000" font-family="sans-serif" font-size="14" font-weight="bold" lengthAdjust="spacing" textLength="30" x="1512" y="157.0751">urls</text><text fill="#000000" font-family="sans-serif" font-size="14" lengthAdjust="spacing" textLength="4" x="1512" y="173.372">&#160;</text><text fill="#000000" font-family="sans-serif" font-size="14" lengthAdjust="spacing" textLength="4" x="1512" y="189.6689">&#160;</text></g><!--entity 50f390b7dc4f9383ab649c12e2e1ca1d--><g id="elem_50f390b7dc4f9383ab649c12e2e1ca1d"><rect fill="#F1F1F1" height="78.8906" rx="2.5" ry="2.5" style="stroke:#181818;stroke-width:0.5;" width="89" x="1373.5" y="124.08"/><rect fill="#F1F1F1" height="10" style="stroke:#181818;stroke-width:0.5;" width="15" x="1442.5" y="129.08"/><rect fill="#F1F1F1" height="2" style="stroke:#181818;stroke-width:0.5;" width="4" x="1440.5" y="131.08"/><rect fill="#F1F1F1" height="2" style="stroke:#181818;stroke-width:0.5;" width="4" x="1440.5" y="135.08"/><text fill="#000000" font-family="sans-serif" font-size="14" font-weight="bold" lengthAdjust="spacing" textLength="49" x="1388.5" y="157.0751">celery</text><text fill="#000000" font-family="sans-serif" font-size="14" lengthAdjust="spacing" textLength="4" x="1388.5" y="173.372">&#160;</text><text fill="#000000" font-family="sans-serif" font-size="14" lengthAdjust="spacing" textLength="4" x="1388.5" y="189.6689">&#160;</text></g><!--entity c79273de292a4dff7adf128582910c39--><g id="elem_c79273de292a4dff7adf128582910c39"><rect fill="#F1F1F1" height="78.8906" rx="2.5" ry="2.5" style="stroke:#181818;stroke-width:0.5;" width="132" x="22" y="124.08"/><rect fill="#F1F1F1" height="10" style="stroke:#181818;stroke-width:0.5;" width="15" x="134" y="129.08"/><rect fill="#F1F1F1" height="2" style="stroke:#181818;stroke-width:0.5;" width="4" x="132" y="131.08"/><rect fill="#F1F1F1" height="2" style="stroke:#181818;stroke-width:0.5;" width="4" x="132" y="135.08"/><text fill="#000000" font-family="sans-serif" font-size="14" font-weight="bold" lengthAdjust="spacing" textLength="92" x="37" y="157.0751">middleware</text><text fill="#000000" font-family="sans-serif" font-size="14" lengthAdjust="spacing" textLength="4" x="37" y="173.372">&#160;</text><text fill="#000000" font-family="sans-serif" font-size="14" lengthAdjust="spacing" textLength="4" x="37" y="189.6689">&#160;</text></g><!--entity b85304badac3963639fee4cf6717bcb4--><g id="elem_b85304badac3963639fee4cf6717bcb4"><rect fill="#F1F1F1" height="78.8906" rx="2.5" ry="2.5" style="stroke:#181818;stroke-width:0.5;" width="127" x="890.5" y="277.97"/><rect fill="#F1F1F1" height="10" style="stroke:#181818;stroke-width:0.5;" width="15" x="997.5" y="282.97"/><rect fill="#F1F1F1" height="2" style="stroke:#181818;stroke-width:0.5;" width="4" x="995.5" y="284.97"/><rect fill="#F1F1F1" height="2" style="stroke:#181818;stroke-width:0.5;" width="4" x="995.5" y="288.97"/><text fill="#000000" font-family="sans-serif" font-size="14" font-weight="bold" lengthAdjust="spacing" textLength="87" x="905.5" y="310.9651">decorators</text><text fill="#000000" font-family="sans-serif" font-size="14" lengthAdjust="spacing" textLength="4" x="905.5" y="327.262">&#160;</text><text fill="#000000" font-family="sans-serif" font-size="14" lengthAdjust="spacing" textLength="4" x="905.5" y="343.5589">&#160;</text></g><!--entity e3c042298a6e8d7a8fe25d991ee54cfb--><g id="elem_e3c042298a6e8d7a8fe25d991ee54cfb"><rect fill="#F1F1F1" height="78.8906" rx="2.5" ry="2.5" style="stroke:#181818;stroke-width:0.5;" width="136" x="1053" y="277.97"/><rect fill="#F1F1F1" height="10" style="stroke:#181818;stroke-width:0.5;" width="15" x="1169" y="282.97"/><rect fill="#F1F1F1" height="2" style="stroke:#181818;stroke-width:0.5;" width="4" x="1167" y="284.97"/><rect fill="#F1F1F1" height="2" style="stroke:#181818;stroke-width:0.5;" width="4" x="1167" y="288.97"/><text fill="#000000" font-family="sans-serif" font-size="14" font-weight="bold" lengthAdjust="spacing" textLength="96" x="1068" y="310.9651">permissions</text><text fill="#000000" font-family="sans-serif" font-size="14" lengthAdjust="spacing" textLength="4" x="1068" y="327.262">&#160;</text><text fill="#000000" font-family="sans-serif" font-size="14" lengthAdjust="spacing" textLength="4" x="1068" y="343.5589">&#160;</text></g><!--entity c0a09b316cf319f49f8dfd278116d02a--><g id="elem_c0a09b316cf319f49f8dfd278116d02a"><rect fill="#F1F1F1" height="78.8906" rx="2.5" ry="2.5" style="stroke:#181818;stroke-width:0.5;" width="92" x="448" y="694.64"/><rect fill="#F1F1F1" height="10" style="stroke:#181818;stroke-width:0.5;" width="15" x="520" y="699.64"/><rect fill="#F1F1F1" height="2" style="stroke:#181818;stroke-width:0.5;" width="4" x="518" y="701.64"/><rect fill="#F1F1F1" height="2" style="stroke:#181818;stroke-width:0.5;" width="4" x="518" y="705.64"/><text fill="#000000" font-family="sans-serif" font-size="14" font-weight="bold" lengthAdjust="spacing" textLength="52" x="463" y="727.6351">choice</text><text fill="#000000" font-family="sans-serif" font-size="14" lengthAdjust="spacing" textLength="4" x="463" y="743.932">&#160;</text><text fill="#000000" font-family="sans-serif" font-size="14" lengthAdjust="spacing" textLength="4" x="463" y="760.2289">&#160;</text></g><!--entity 5ca5c0b63f3a1559ad30bd46e6d88e37--><g id="elem_5ca5c0b63f3a1559ad30bd46e6d88e37"><rect fill="#F1F1F1" height="78.8906" rx="2.5" ry="2.5" style="stroke:#181818;stroke-width:0.5;" width="118" x="189" y="124.08"/><rect fill="#F1F1F1" height="10" style="stroke:#181818;stroke-width:0.5;" width="15" x="287" y="129.08"/><rect fill="#F1F1F1" height="2" style="stroke:#181818;stroke-width:0.5;" width="4" x="285" y="131.08"/><rect fill="#F1F1F1" height="2" style="stroke:#181818;stroke-width:0.5;" width="4" x="285" y="135.08"/><text fill="#000000" font-family="sans-serif" font-size="14" font-weight="bold" lengthAdjust="spacing" textLength="78" x="204" y="157.0751">url-helper</text><text fill="#000000" font-family="sans-serif" font-size="14" lengthAdjust="spacing" textLength="4" x="204" y="173.372">&#160;</text><text fill="#000000" font-family="sans-serif" font-size="14" lengthAdjust="spacing" textLength="4" x="204" y="189.6689">&#160;</text></g><!--entity 481e3a13c12503ad62d03912261f1833--><g id="elem_481e3a13c12503ad62d03912261f1833"><rect fill="#F1F1F1" height="78.8906" rx="2.5" ry="2.5" style="stroke:#181818;stroke-width:0.5;" width="86" x="911" y="124.08"/><rect fill="#F1F1F1" height="10" style="stroke:#181818;stroke-width:0.5;" width="15" x="977" y="129.08"/><rect fill="#F1F1F1" height="2" style="stroke:#181818;stroke-width:0.5;" width="4" x="975" y="131.08"/><rect fill="#F1F1F1" height="2" style="stroke:#181818;stroke-width:0.5;" width="4" x="975" y="135.08"/><text fill="#000000" font-family="sans-serif" font-size="14" font-weight="bold" lengthAdjust="spacing" textLength="46" x="926" y="157.0751">views</text><text fill="#000000" font-family="sans-serif" font-size="14" lengthAdjust="spacing" textLength="4" x="926" y="173.372">&#160;</text><text fill="#000000" font-family="sans-serif" font-size="14" lengthAdjust="spacing" textLength="4" x="926" y="189.6689">&#160;</text></g><!--entity 76706001375b0da185d68d2efc0221b2--><g id="elem_76706001375b0da185d68d2efc0221b2"><rect fill="#F1F1F1" height="78.8906" rx="2.5" ry="2.5" style="stroke:#181818;stroke-width:0.5;" width="95" x="1223.5" y="277.97"/><rect fill="#F1F1F1" height="10" style="stroke:#181818;stroke-width:0.5;" width="15" x="1298.5" y="282.97"/><rect fill="#F1F1F1" height="2" style="stroke:#181818;stroke-width:0.5;" width="4" x="1296.5" y="284.97"/><rect fill="#F1F1F1" height="2" style="stroke:#181818;stroke-width:0.5;" width="4" x="1296.5" y="288.97"/><text fill="#000000" font-family="sans-serif" font-size="14" font-weight="bold" lengthAdjust="spacing" textLength="55" x="1238.5" y="310.9651">signals</text><text fill="#000000" font-family="sans-serif" font-size="14" lengthAdjust="spacing" textLength="4" x="1238.5" y="327.262">&#160;</text><text fill="#000000" font-family="sans-serif" font-size="14" lengthAdjust="spacing" textLength="4" x="1238.5" y="343.5589">&#160;</text></g><!--entity 933d2253f55735de2af83f488b7f6ef0--><g id="elem_933d2253f55735de2af83f488b7f6ef0"><rect fill="#F1F1F1" height="78.8906" rx="2.5" ry="2.5" style="stroke:#181818;stroke-width:0.5;" width="122" x="433" y="416.86"/><rect fill="#F1F1F1" height="10" style="stroke:#181818;stroke-width:0.5;" width="15" x="535" y="421.86"/><rect fill="#F1F1F1" height="2" style="stroke:#181818;stroke-width:0.5;" width="4" x="533" y="423.86"/><rect fill="#F1F1F1" height="2" style="stroke:#181818;stroke-width:0.5;" width="4" x="533" y="427.86"/><text fill="#000000" font-family="sans-serif" font-size="14" font-weight="bold" lengthAdjust="spacing" textLength="82" x="448" y="449.8551">serializers</text><text fill="#000000" font-family="sans-serif" font-size="14" lengthAdjust="spacing" textLength="4" x="448" y="466.152">&#160;</text><text fill="#000000" font-family="sans-serif" font-size="14" lengthAdjust="spacing" textLength="4" x="448" y="482.4489">&#160;</text></g><!--entity 97424bc461d479c8a58d9321eb7c29e5--><g id="elem_97424bc461d479c8a58d9321eb7c29e5"><rect fill="#F1F1F1" height="78.8906" rx="2.5" ry="2.5" style="stroke:#181818;stroke-width:0.5;" width="80" x="342" y="124.08"/><rect fill="#F1F1F1" height="10" style="stroke:#181818;stroke-width:0.5;" width="15" x="402" y="129.08"/><rect fill="#F1F1F1" height="2" style="stroke:#181818;stroke-width:0.5;" width="4" x="400" y="131.08"/><rect fill="#F1F1F1" height="2" style="stroke:#181818;stroke-width:0.5;" width="4" x="400" y="135.08"/><text fill="#000000" font-family="sans-serif" font-size="14" font-weight="bold" lengthAdjust="spacing" textLength="40" x="357" y="157.0751">tests</text><text fill="#000000" font-family="sans-serif" font-size="14" lengthAdjust="spacing" textLength="4" x="357" y="173.372">&#160;</text><text fill="#000000" font-family="sans-serif" font-size="14" lengthAdjust="spacing" textLength="4" x="357" y="189.6689">&#160;</text></g><!--entity bdbbc1bbc5610fc910c563796bdcf5a5--><g id="elem_bdbbc1bbc5610fc910c563796bdcf5a5"><rect fill="#F1F1F1" height="78.8906" rx="2.5" ry="2.5" style="stroke:#181818;stroke-width:0.5;" width="78" x="22" y="277.97"/><rect fill="#F1F1F1" height="10" style="stroke:#181818;stroke-width:0.5;" width="15" x="80" y="282.97"/><rect fill="#F1F1F1" height="2" style="stroke:#181818;stroke-width:0.5;" width="4" x="78" y="284.97"/><rect fill="#F1F1F1" height="2" style="stroke:#181818;stroke-width:0.5;" width="4" x="78" y="288.97"/><text fill="#000000" font-family="sans-serif" font-size="14" font-weight="bold" lengthAdjust="spacing" textLength="38" x="37" y="310.9651">apps</text><text fill="#000000" font-family="sans-serif" font-size="14" lengthAdjust="spacing" textLength="4" x="37" y="327.262">&#160;</text><text fill="#000000" font-family="sans-serif" font-size="14" lengthAdjust="spacing" textLength="4" x="37" y="343.5589">&#160;</text></g><!--entity 7cc28054e81e6105caf4c807b61f3463--><g id="elem_7cc28054e81e6105caf4c807b61f3463"><rect fill="#F1F1F1" height="78.8906" rx="2.5" ry="2.5" style="stroke:#181818;stroke-width:0.5;" width="97" x="445.5" y="555.75"/><rect fill="#F1F1F1" height="10" style="stroke:#181818;stroke-width:0.5;" width="15" x="522.5" y="560.75"/><rect fill="#F1F1F1" height="2" style="stroke:#181818;stroke-width:0.5;" width="4" x="520.5" y="562.75"/><rect fill="#F1F1F1" height="2" style="stroke:#181818;stroke-width:0.5;" width="4" x="520.5" y="566.75"/><text fill="#000000" font-family="sans-serif" font-size="14" font-weight="bold" lengthAdjust="spacing" textLength="57" x="460.5" y="588.7451">models</text><text fill="#000000" font-family="sans-serif" font-size="14" lengthAdjust="spacing" textLength="4" x="460.5" y="605.042">&#160;</text><text fill="#000000" font-family="sans-serif" font-size="14" lengthAdjust="spacing" textLength="4" x="460.5" y="621.3389">&#160;</text></g><!--entity e3836bbe50cdb926bc1db2b3cec19c0d--><g id="elem_e3836bbe50cdb926bc1db2b3cec19c0d"><rect fill="#F1F1F1" height="78.8906" rx="2.5" ry="2.5" style="stroke:#181818;stroke-width:0.5;" width="145" x="134.5" y="277.97"/><rect fill="#F1F1F1" height="10" style="stroke:#181818;stroke-width:0.5;" width="15" x="259.5" y="282.97"/><rect fill="#F1F1F1" height="2" style="stroke:#181818;stroke-width:0.5;" width="4" x="257.5" y="284.97"/><rect fill="#F1F1F1" height="2" style="stroke:#181818;stroke-width:0.5;" width="4" x="257.5" y="288.97"/><text fill="#000000" font-family="sans-serif" font-size="14" font-weight="bold" lengthAdjust="spacing" textLength="105" x="149.5" y="310.9651">cache_helper</text><text fill="#000000" font-family="sans-serif" font-size="14" lengthAdjust="spacing" textLength="4" x="149.5" y="327.262">&#160;</text><text fill="#000000" font-family="sans-serif" font-size="14" lengthAdjust="spacing" textLength="4" x="149.5" y="343.5589">&#160;</text></g><!--entity 09fe1088929c8b9f208a06abb60c1fd6--><g id="elem_09fe1088929c8b9f208a06abb60c1fd6"><rect fill="#F1F1F1" height="78.8906" rx="2.5" ry="2.5" style="stroke:#181818;stroke-width:0.5;" width="82" x="1233" y="416.86"/><rect fill="#F1F1F1" height="10" style="stroke:#181818;stroke-width:0.5;" width="15" x="1295" y="421.86"/><rect fill="#F1F1F1" height="2" style="stroke:#181818;stroke-width:0.5;" width="4" x="1293" y="423.86"/><rect fill="#F1F1F1" height="2" style="stroke:#181818;stroke-width:0.5;" width="4" x="1293" y="427.86"/><text fill="#000000" font-family="sans-serif" font-size="14" font-weight="bold" lengthAdjust="spacing" textLength="42" x="1248" y="449.8551">tasks</text><text fill="#000000" font-family="sans-serif" font-size="14" lengthAdjust="spacing" textLength="4" x="1248" y="466.152">&#160;</text><text fill="#000000" font-family="sans-serif" font-size="14" lengthAdjust="spacing" textLength="4" x="1248" y="482.4489">&#160;</text></g><!--entity ed9d53515a32f745e7717492166e995a--><g id="elem_ed9d53515a32f745e7717492166e995a"><rect fill="#F1F1F1" height="78.8906" rx="2.5" ry="2.5" style="stroke:#181818;stroke-width:0.5;" width="87" x="589.5" y="416.86"/><rect fill="#F1F1F1" height="10" style="stroke:#181818;stroke-width:0.5;" width="15" x="656.5" y="421.86"/><rect fill="#F1F1F1" height="2" style="stroke:#181818;stroke-width:0.5;" width="4" x="654.5" y="423.86"/><rect fill="#F1F1F1" height="2" style="stroke:#181818;stroke-width:0.5;" width="4" x="654.5" y="427.86"/><text fill="#000000" font-family="sans-serif" font-size="14" font-weight="bold" lengthAdjust="spacing" textLength="47" x="604.5" y="449.8551">admin</text><text fill="#000000" font-family="sans-serif" font-size="14" lengthAdjust="spacing" textLength="4" x="604.5" y="466.152">&#160;</text><text fill="#000000" font-family="sans-serif" font-size="14" lengthAdjust="spacing" textLength="4" x="604.5" y="482.4489">&#160;</text></g><!--entity a7e125423f5b578c72a44369bd66b550--><g id="elem_a7e125423f5b578c72a44369bd66b550"><rect fill="#F1F1F1" height="78.8906" rx="2.5" ry="2.5" style="stroke:#181818;stroke-width:0.5;" width="175" x="352.5" y="277.97"/><rect fill="#F1F1F1" height="10" style="stroke:#181818;stroke-width:0.5;" width="15" x="507.5" y="282.97"/><rect fill="#F1F1F1" height="2" style="stroke:#181818;stroke-width:0.5;" width="4" x="505.5" y="284.97"/><rect fill="#F1F1F1" height="2" style="stroke:#181818;stroke-width:0.5;" width="4" x="505.5" y="288.97"/><text fill="#000000" font-family="sans-serif" font-size="14" font-weight="bold" lengthAdjust="spacing" textLength="135" x="367.5" y="310.9651">payment_handler</text><text fill="#000000" font-family="sans-serif" font-size="14" lengthAdjust="spacing" textLength="4" x="367.5" y="327.262">&#160;</text><text fill="#000000" font-family="sans-serif" font-size="14" lengthAdjust="spacing" textLength="4" x="367.5" y="343.5589">&#160;</text></g><!--entity c9dbea79f3615a028d21e42dad9e8c99--><g id="elem_c9dbea79f3615a028d21e42dad9e8c99"><rect fill="#F1F1F1" height="78.8906" rx="2.5" ry="2.5" style="stroke:#181818;stroke-width:0.5;" width="140" x="600" y="277.97"/><rect fill="#F1F1F1" height="10" style="stroke:#181818;stroke-width:0.5;" width="15" x="720" y="282.97"/><rect fill="#F1F1F1" height="2" style="stroke:#181818;stroke-width:0.5;" width="4" x="718" y="284.97"/><rect fill="#F1F1F1" height="2" style="stroke:#181818;stroke-width:0.5;" width="4" x="718" y="288.97"/><text fill="#000000" font-family="sans-serif" font-size="14" font-weight="bold" lengthAdjust="spacing" textLength="100" x="615" y="310.9651">test_location</text><text fill="#000000" font-family="sans-serif" font-size="14" lengthAdjust="spacing" textLength="4" x="615" y="327.262">&#160;</text><text fill="#000000" font-family="sans-serif" font-size="14" lengthAdjust="spacing" textLength="4" x="615" y="343.5589">&#160;</text></g><!--entity 7cbdf07db57df353acb7503b166eb7c5--><g id="elem_7cbdf07db57df353acb7503b166eb7c5"><rect fill="#F1F1F1" height="78.8906" rx="2.5" ry="2.5" style="stroke:#181818;stroke-width:0.5;" width="80" x="775" y="277.97"/><rect fill="#F1F1F1" height="10" style="stroke:#181818;stroke-width:0.5;" width="15" x="835" y="282.97"/><rect fill="#F1F1F1" height="2" style="stroke:#181818;stroke-width:0.5;" width="4" x="833" y="284.97"/><rect fill="#F1F1F1" height="2" style="stroke:#181818;stroke-width:0.5;" width="4" x="833" y="288.97"/><text fill="#000000" font-family="sans-serif" font-size="14" font-weight="bold" lengthAdjust="spacing" textLength="40" x="790" y="310.9651">price</text><text fill="#000000" font-family="sans-serif" font-size="14" lengthAdjust="spacing" textLength="4" x="790" y="327.262">&#160;</text><text fill="#000000" font-family="sans-serif" font-size="14" lengthAdjust="spacing" textLength="4" x="790" y="343.5589">&#160;</text></g><!--entity 9b2710dfe9084a45c6da1c7200d2fb29--><g id="elem_9b2710dfe9084a45c6da1c7200d2fb29"><rect fill="#F1F1F1" height="78.8906" rx="2.5" ry="2.5" style="stroke:#181818;stroke-width:0.5;" width="228" x="1713" y="555.75"/><rect fill="#F1F1F1" height="10" style="stroke:#181818;stroke-width:0.5;" width="15" x="1921" y="560.75"/><rect fill="#F1F1F1" height="2" style="stroke:#181818;stroke-width:0.5;" width="4" x="1919" y="562.75"/><rect fill="#F1F1F1" height="2" style="stroke:#181818;stroke-width:0.5;" width="4" x="1919" y="566.75"/><text fill="#000000" font-family="sans-serif" font-size="14" font-weight="bold" lengthAdjust="spacing" textLength="188" x="1728" y="588.7451">otp_verification_handler</text><text fill="#000000" font-family="sans-serif" font-size="14" lengthAdjust="spacing" textLength="4" x="1728" y="605.042">&#160;</text><text fill="#000000" font-family="sans-serif" font-size="14" lengthAdjust="spacing" textLength="4" x="1728" y="621.3389">&#160;</text></g><!--entity ce6e3703d05d9463bbc31efce771e1df--><g id="elem_ce6e3703d05d9463bbc31efce771e1df"><rect fill="#F1F1F1" height="78.8906" rx="2.5" ry="2.5" style="stroke:#181818;stroke-width:0.5;" width="86" x="1855" y="277.97"/><rect fill="#F1F1F1" height="10" style="stroke:#181818;stroke-width:0.5;" width="15" x="1921" y="282.97"/><rect fill="#F1F1F1" height="2" style="stroke:#181818;stroke-width:0.5;" width="4" x="1919" y="284.97"/><rect fill="#F1F1F1" height="2" style="stroke:#181818;stroke-width:0.5;" width="4" x="1919" y="288.97"/><text fill="#000000" font-family="sans-serif" font-size="14" font-weight="bold" lengthAdjust="spacing" textLength="46" x="1870" y="310.9651">views</text><text fill="#000000" font-family="sans-serif" font-size="14" lengthAdjust="spacing" textLength="4" x="1870" y="327.262">&#160;</text><text fill="#000000" font-family="sans-serif" font-size="14" lengthAdjust="spacing" textLength="4" x="1870" y="343.5589">&#160;</text></g><!--entity 7fab8125340fb480d2d3c3edf9d2eca5--><g id="elem_7fab8125340fb480d2d3c3edf9d2eca5"><rect fill="#F1F1F1" height="78.8906" rx="2.5" ry="2.5" style="stroke:#181818;stroke-width:0.5;" width="160" x="1424" y="277.97"/><rect fill="#F1F1F1" height="10" style="stroke:#181818;stroke-width:0.5;" width="15" x="1564" y="282.97"/><rect fill="#F1F1F1" height="2" style="stroke:#181818;stroke-width:0.5;" width="4" x="1562" y="284.97"/><rect fill="#F1F1F1" height="2" style="stroke:#181818;stroke-width:0.5;" width="4" x="1562" y="288.97"/><text fill="#000000" font-family="sans-serif" font-size="14" font-weight="bold" lengthAdjust="spacing" textLength="120" x="1439" y="310.9651">passwordreset</text><text fill="#000000" font-family="sans-serif" font-size="14" lengthAdjust="spacing" textLength="4" x="1439" y="327.262">&#160;</text><text fill="#000000" font-family="sans-serif" font-size="14" lengthAdjust="spacing" textLength="4" x="1439" y="343.5589">&#160;</text></g><!--entity f3e22504a437a3e95c476079d46c91c1--><g id="elem_f3e22504a437a3e95c476079d46c91c1"><rect fill="#F1F1F1" height="78.8906" rx="2.5" ry="2.5" style="stroke:#181818;stroke-width:0.5;" width="122" x="1766" y="416.86"/><rect fill="#F1F1F1" height="10" style="stroke:#181818;stroke-width:0.5;" width="15" x="1868" y="421.86"/><rect fill="#F1F1F1" height="2" style="stroke:#181818;stroke-width:0.5;" width="4" x="1866" y="423.86"/><rect fill="#F1F1F1" height="2" style="stroke:#181818;stroke-width:0.5;" width="4" x="1866" y="427.86"/><text fill="#000000" font-family="sans-serif" font-size="14" font-weight="bold" lengthAdjust="spacing" textLength="82" x="1781" y="449.8551">serializers</text><text fill="#000000" font-family="sans-serif" font-size="14" lengthAdjust="spacing" textLength="4" x="1781" y="466.152">&#160;</text><text fill="#000000" font-family="sans-serif" font-size="14" lengthAdjust="spacing" textLength="4" x="1781" y="482.4489">&#160;</text></g><!--entity 59903500ab3a47d066e988f29712ac6e--><g id="elem_59903500ab3a47d066e988f29712ac6e"><rect fill="#F1F1F1" height="78.8906" rx="2.5" ry="2.5" style="stroke:#181818;stroke-width:0.5;" width="80" x="1619" y="277.97"/><rect fill="#F1F1F1" height="10" style="stroke:#181818;stroke-width:0.5;" width="15" x="1679" y="282.97"/><rect fill="#F1F1F1" height="2" style="stroke:#181818;stroke-width:0.5;" width="4" x="1677" y="284.97"/><rect fill="#F1F1F1" height="2" style="stroke:#181818;stroke-width:0.5;" width="4" x="1677" y="288.97"/><text fill="#000000" font-family="sans-serif" font-size="14" font-weight="bold" lengthAdjust="spacing" textLength="40" x="1634" y="310.9651">tests</text><text fill="#000000" font-family="sans-serif" font-size="14" lengthAdjust="spacing" textLength="4" x="1634" y="327.262">&#160;</text><text fill="#000000" font-family="sans-serif" font-size="14" lengthAdjust="spacing" textLength="4" x="1634" y="343.5589">&#160;</text></g><!--entity 3a03d4926b7099bbd8ff08e0ea0821cf--><g id="elem_3a03d4926b7099bbd8ff08e0ea0821cf"><rect fill="#F1F1F1" height="78.8906" rx="2.5" ry="2.5" style="stroke:#181818;stroke-width:0.5;" width="78" x="1465" y="416.86"/><rect fill="#F1F1F1" height="10" style="stroke:#181818;stroke-width:0.5;" width="15" x="1523" y="421.86"/><rect fill="#F1F1F1" height="2" style="stroke:#181818;stroke-width:0.5;" width="4" x="1521" y="423.86"/><rect fill="#F1F1F1" height="2" style="stroke:#181818;stroke-width:0.5;" width="4" x="1521" y="427.86"/><text fill="#000000" font-family="sans-serif" font-size="14" font-weight="bold" lengthAdjust="spacing" textLength="38" x="1480" y="449.8551">apps</text><text fill="#000000" font-family="sans-serif" font-size="14" lengthAdjust="spacing" textLength="4" x="1480" y="466.152">&#160;</text><text fill="#000000" font-family="sans-serif" font-size="14" lengthAdjust="spacing" textLength="4" x="1480" y="482.4489">&#160;</text></g><!--entity 4f0347d097b0f2b50bb0ede8e476fa2a--><g id="elem_4f0347d097b0f2b50bb0ede8e476fa2a"><rect fill="#F1F1F1" height="78.8906" rx="2.5" ry="2.5" style="stroke:#181818;stroke-width:0.5;" width="97" x="1634.5" y="416.86"/><rect fill="#F1F1F1" height="10" style="stroke:#181818;stroke-width:0.5;" width="15" x="1711.5" y="421.86"/><rect fill="#F1F1F1" height="2" style="stroke:#181818;stroke-width:0.5;" width="4" x="1709.5" y="423.86"/><rect fill="#F1F1F1" height="2" style="stroke:#181818;stroke-width:0.5;" width="4" x="1709.5" y="427.86"/><text fill="#000000" font-family="sans-serif" font-size="14" font-weight="bold" lengthAdjust="spacing" textLength="57" x="1649.5" y="449.8551">models</text><text fill="#000000" font-family="sans-serif" font-size="14" lengthAdjust="spacing" textLength="4" x="1649.5" y="466.152">&#160;</text><text fill="#000000" font-family="sans-serif" font-size="14" lengthAdjust="spacing" textLength="4" x="1649.5" y="482.4489">&#160;</text></g><!--entity cf1dd3df70f7305509a493dc7986e759--><g id="elem_cf1dd3df70f7305509a493dc7986e759"><rect fill="#F1F1F1" height="78.8906" rx="2.5" ry="2.5" style="stroke:#181818;stroke-width:0.5;" width="87" x="1733.5" y="277.97"/><rect fill="#F1F1F1" height="10" style="stroke:#181818;stroke-width:0.5;" width="15" x="1800.5" y="282.97"/><rect fill="#F1F1F1" height="2" style="stroke:#181818;stroke-width:0.5;" width="4" x="1798.5" y="284.97"/><rect fill="#F1F1F1" height="2" style="stroke:#181818;stroke-width:0.5;" width="4" x="1798.5" y="288.97"/><text fill="#000000" font-family="sans-serif" font-size="14" font-weight="bold" lengthAdjust="spacing" textLength="47" x="1748.5" y="310.9651">admin</text><text fill="#000000" font-family="sans-serif" font-size="14" lengthAdjust="spacing" textLength="4" x="1748.5" y="327.262">&#160;</text><text fill="#000000" font-family="sans-serif" font-size="14" lengthAdjust="spacing" textLength="4" x="1748.5" y="343.5589">&#160;</text></g><!--link 43eae632cc23ce83e3a77a114e02da4d to 481e3a13c12503ad62d03912261f1833--><g id="link_43eae632cc23ce83e3a77a114e02da4d_481e3a13c12503ad62d03912261f1833"><path codeLine="145" d="M1518.95,123.7 C1508.2,97.97 1490.16,66.5 1462.5,51.08 C1381.65,6 1110.4492,102.8039 1002.8592,144.2339 " fill="none" id="43eae632cc23ce83e3a77a114e02da4d-to-481e3a13c12503ad62d03912261f1833" style="stroke:#181818;stroke-width:1.0;"/><polygon fill="#181818" points="997.26,146.39,1007.0962,146.8887,1001.926,144.5932,1004.2214,139.423,997.26,146.39" style="stroke:#181818;stroke-width:1.0;"/></g><!--link 43eae632cc23ce83e3a77a114e02da4d to ce6e3703d05d9463bbc31efce771e1df--><g id="link_43eae632cc23ce83e3a77a114e02da4d_ce6e3703d05d9463bbc31efce771e1df"><path codeLine="146" d="M1567.17,164.88 C1627.46,167.09 1752.33,178.71 1838,234.97 C1854.15,245.57 1864.2393,257.0634 1874.2093,272.4634 " fill="none" id="43eae632cc23ce83e3a77a114e02da4d-to-ce6e3703d05d9463bbc31efce771e1df" style="stroke:#181818;stroke-width:1.0;"/><polygon fill="#181818" points="1877.47,277.5,1875.9367,267.7712,1874.7527,273.3028,1869.2212,272.1189,1877.47,277.5" style="stroke:#181818;stroke-width:1.0;"/></g><!--link c9dbea79f3615a028d21e42dad9e8c99 to 7cc28054e81e6105caf4c807b61f3463--><g id="link_c9dbea79f3615a028d21e42dad9e8c99_7cc28054e81e6105caf4c807b61f3463"><path codeLine="147" d="M688.82,357.08 C704.42,395.19 720.18,453.68 694,495.75 C661.08,548.65 596.2944,572.5499 548.4144,584.0399 " fill="none" id="c9dbea79f3615a028d21e42dad9e8c99-to-7cc28054e81e6105caf4c807b61f3463" style="stroke:#181818;stroke-width:1.0;"/><polygon fill="#181818" points="542.58,585.44,552.2649,587.2294,547.442,584.2733,550.3981,579.4503,542.58,585.44" style="stroke:#181818;stroke-width:1.0;"/></g><!--link c9dbea79f3615a028d21e42dad9e8c99 to 933d2253f55735de2af83f488b7f6ef0--><g id="link_c9dbea79f3615a028d21e42dad9e8c99_933d2253f55735de2af83f488b7f6ef0"><path codeLine="148" d="M625.02,357.23 C615.54,365.17 605.52,373.38 596,380.86 C580.91,392.71 569.0682,401.6152 553.6382,412.8652 " fill="none" id="c9dbea79f3615a028d21e42dad9e8c99-to-933d2253f55735de2af83f488b7f6ef0" style="stroke:#181818;stroke-width:1.0;"/><polygon fill="#181818" points="548.79,416.4,558.4188,414.3299,552.8302,413.4543,553.7058,407.8656,548.79,416.4" style="stroke:#181818;stroke-width:1.0;"/></g><!--link c9dbea79f3615a028d21e42dad9e8c99 to 4f0347d097b0f2b50bb0ede8e476fa2a--><g id="link_c9dbea79f3615a028d21e42dad9e8c99_4f0347d097b0f2b50bb0ede8e476fa2a"><path codeLine="149" d="M714.27,357.2 C727.49,366.65 742.59,375.56 758,380.86 C926.72,438.84 1384.29,385.99 1560,416.86 C1584.9,421.23 1606.0992,427.309 1628.3692,434.879 " fill="none" id="c9dbea79f3615a028d21e42dad9e8c99-to-4f0347d097b0f2b50bb0ede8e476fa2a" style="stroke:#181818;stroke-width:1.0;"/><polygon fill="#181818" points="1634.05,436.81,1626.8162,430.1263,1629.316,435.2008,1624.2415,437.7007,1634.05,436.81" style="stroke:#181818;stroke-width:1.0;"/></g><!--link 481e3a13c12503ad62d03912261f1833 to 933d2253f55735de2af83f488b7f6ef0--><g id="link_481e3a13c12503ad62d03912261f1833_933d2253f55735de2af83f488b7f6ef0"><path codeLine="150" d="M910.62,167.1 C823.38,173.18 631,191.28 584,234.97 C534.84,280.66 573.04,319.88 545,380.86 C539.37,393.1 535.1678,400.5748 527.5478,411.6648 " fill="none" id="481e3a13c12503ad62d03912261f1833-to-933d2253f55735de2af83f488b7f6ef0" style="stroke:#181818;stroke-width:1.0;"/><polygon fill="#181818" points="524.15,416.61,532.5435,411.4575,526.9815,412.489,525.95,406.927,524.15,416.61" style="stroke:#181818;stroke-width:1.0;"/></g><!--link 481e3a13c12503ad62d03912261f1833 to 7cc28054e81e6105caf4c807b61f3463--><g id="link_481e3a13c12503ad62d03912261f1833_7cc28054e81e6105caf4c807b61f3463"><path codeLine="151" d="M910.66,170.43 C822.16,182.35 614.22,209.61 439,226.97 C427.47,228.11 342.87,226.46 335,234.97 C246.26,330.8 374.9763,480.0688 447.6263,551.3188 " fill="none" id="481e3a13c12503ad62d03912261f1833-to-7cc28054e81e6105caf4c807b61f3463" style="stroke:#181818;stroke-width:1.0;"/><polygon fill="#181818" points="451.91,555.52,448.2852,546.3624,448.3402,552.019,442.6837,552.0741,451.91,555.52" style="stroke:#181818;stroke-width:1.0;"/></g><!--link 481e3a13c12503ad62d03912261f1833 to a7e125423f5b578c72a44369bd66b550--><g id="link_481e3a13c12503ad62d03912261f1833_a7e125423f5b578c72a44369bd66b550"><path codeLine="152" d="M910.63,165.99 C835.43,169.87 677.2,183.95 555,234.97 C530.05,245.38 509.9784,258.3252 489.7984,273.8252 " fill="none" id="481e3a13c12503ad62d03912261f1833-to-a7e125423f5b578c72a44369bd66b550" style="stroke:#181818;stroke-width:1.0;"/><polygon fill="#181818" points="485.04,277.48,494.6141,275.17,489.0053,274.4343,489.741,268.8255,485.04,277.48" style="stroke:#181818;stroke-width:1.0;"/></g><!--link 481e3a13c12503ad62d03912261f1833 to e3c042298a6e8d7a8fe25d991ee54cfb--><g id="link_481e3a13c12503ad62d03912261f1833_e3c042298a6e8d7a8fe25d991ee54cfb"><path codeLine="153" d="M997.18,201.48 C1009.49,212.18 1022.86,223.95 1035,234.97 C1050.07,248.65 1062.0023,259.7951 1076.3023,273.3951 " fill="none" id="481e3a13c12503ad62d03912261f1833-to-e3c042298a6e8d7a8fe25d991ee54cfb" style="stroke:#181818;stroke-width:1.0;"/><polygon fill="#181818" points="1080.65,277.53,1076.885,268.4292,1077.0269,274.0843,1071.3718,274.2261,1080.65,277.53" style="stroke:#181818;stroke-width:1.0;"/></g><!--link 481e3a13c12503ad62d03912261f1833 to b85304badac3963639fee4cf6717bcb4--><g id="link_481e3a13c12503ad62d03912261f1833_b85304badac3963639fee4cf6717bcb4"><path codeLine="154" d="M954,203.24 C954,226.01 954,248.7 954,271.5 " fill="none" id="481e3a13c12503ad62d03912261f1833-to-b85304badac3963639fee4cf6717bcb4" style="stroke:#181818;stroke-width:1.0;"/><polygon fill="#181818" points="954,277.5,958,268.5,954,272.5,950,268.5,954,277.5" style="stroke:#181818;stroke-width:1.0;"/></g><!--link 481e3a13c12503ad62d03912261f1833 to 76706001375b0da185d68d2efc0221b2--><g id="link_481e3a13c12503ad62d03912261f1833_76706001375b0da185d68d2efc0221b2"><path codeLine="155" d="M997.23,168.3 C1050.51,174.71 1141.95,191.58 1207,234.97 C1223.46,245.94 1234.146,257.6069 1244.906,272.9569 " fill="none" id="481e3a13c12503ad62d03912261f1833-to-76706001375b0da185d68d2efc0221b2" style="stroke:#181818;stroke-width:1.0;"/><polygon fill="#181818" points="1248.35,277.87,1246.4594,268.2043,1245.48,273.7757,1239.9086,272.7963,1248.35,277.87" style="stroke:#181818;stroke-width:1.0;"/></g><!--link 76706001375b0da185d68d2efc0221b2 to 09fe1088929c8b9f208a06abb60c1fd6--><g id="link_76706001375b0da185d68d2efc0221b2_09fe1088929c8b9f208a06abb60c1fd6"><path codeLine="156" d="M1271.85,357.27 C1272.26,375.93 1272.6178,392.2115 1273.0278,410.8215 " fill="none" id="76706001375b0da185d68d2efc0221b2-to-09fe1088929c8b9f208a06abb60c1fd6" style="stroke:#181818;stroke-width:1.0;"/><polygon fill="#181818" points="1273.16,416.82,1276.9608,407.7341,1273.0499,411.8212,1268.9627,407.9103,1273.16,416.82" style="stroke:#181818;stroke-width:1.0;"/></g><!--link 933d2253f55735de2af83f488b7f6ef0 to 7cc28054e81e6105caf4c807b61f3463--><g id="link_933d2253f55735de2af83f488b7f6ef0_7cc28054e81e6105caf4c807b61f3463"><path codeLine="157" d="M494,496.16 C494,514.82 494,531.1 494,549.71 " fill="none" id="933d2253f55735de2af83f488b7f6ef0-to-7cc28054e81e6105caf4c807b61f3463" style="stroke:#181818;stroke-width:1.0;"/><polygon fill="#181818" points="494,555.71,498,546.71,494,550.71,490,546.71,494,555.71" style="stroke:#181818;stroke-width:1.0;"/></g><!--link 7cc28054e81e6105caf4c807b61f3463 to c0a09b316cf319f49f8dfd278116d02a--><g id="link_7cc28054e81e6105caf4c807b61f3463_c0a09b316cf319f49f8dfd278116d02a"><path codeLine="158" d="M494,635.06 C494,653.71 494,669.99 494,688.6 " fill="none" id="7cc28054e81e6105caf4c807b61f3463-to-c0a09b316cf319f49f8dfd278116d02a" style="stroke:#181818;stroke-width:1.0;"/><polygon fill="#181818" points="494,694.6,498,685.6,494,689.6,490,685.6,494,694.6" style="stroke:#181818;stroke-width:1.0;"/></g><!--link 09fe1088929c8b9f208a06abb60c1fd6 to 50f390b7dc4f9383ab649c12e2e1ca1d--><g id="link_09fe1088929c8b9f208a06abb60c1fd6_50f390b7dc4f9383ab649c12e2e1ca1d"><path codeLine="159" d="M1310.39,416.56 C1319.54,405.56 1328.79,393.21 1336,380.86 C1369.92,322.76 1392.8753,253.8315 1405.8653,209.1415 " fill="none" id="09fe1088929c8b9f208a06abb60c1fd6-to-50f390b7dc4f9383ab649c12e2e1ca1d" style="stroke:#181818;stroke-width:1.0;"/><polygon fill="#181818" points="1407.54,203.38,1401.1869,210.9058,1406.1444,208.1813,1408.869,213.1388,1407.54,203.38" style="stroke:#181818;stroke-width:1.0;"/></g><!--link ed9d53515a32f745e7717492166e995a to 7cc28054e81e6105caf4c807b61f3463--><g id="link_ed9d53515a32f745e7717492166e995a_7cc28054e81e6105caf4c807b61f3463"><path codeLine="160" d="M593.54,496.16 C574.6,514.82 556.2442,532.8892 537.3542,551.4992 " fill="none" id="ed9d53515a32f745e7717492166e995a-to-7cc28054e81e6105caf4c807b61f3463" style="stroke:#181818;stroke-width:1.0;"/><polygon fill="#181818" points="533.08,555.71,542.2985,552.2432,536.6418,552.201,536.6841,546.5443,533.08,555.71" style="stroke:#181818;stroke-width:1.0;"/></g><!--link a7e125423f5b578c72a44369bd66b550 to 7cc28054e81e6105caf4c807b61f3463--><g id="link_a7e125423f5b578c72a44369bd66b550_7cc28054e81e6105caf4c807b61f3463"><path codeLine="161" d="M424.7,357.15 C412.54,393.78 400.01,449.83 416,495.75 C423.67,517.78 434.6006,534.0919 449.3206,550.8519 " fill="none" id="a7e125423f5b578c72a44369bd66b550-to-7cc28054e81e6105caf4c807b61f3463" style="stroke:#181818;stroke-width:1.0;"/><polygon fill="#181818" points="453.28,555.36,450.3463,545.9582,449.9805,551.6032,444.3355,551.2374,453.28,555.36" style="stroke:#181818;stroke-width:1.0;"/></g><!--link a7e125423f5b578c72a44369bd66b550 to 933d2253f55735de2af83f488b7f6ef0--><g id="link_a7e125423f5b578c72a44369bd66b550_933d2253f55735de2af83f488b7f6ef0"><path codeLine="162" d="M455.33,357.27 C462.69,375.93 469.2786,392.6284 476.6186,411.2384 " fill="none" id="a7e125423f5b578c72a44369bd66b550-to-933d2253f55735de2af83f488b7f6ef0" style="stroke:#181818;stroke-width:1.0;"/><polygon fill="#181818" points="478.82,416.82,479.2389,406.9801,476.9855,412.1687,471.7968,409.9153,478.82,416.82" style="stroke:#181818;stroke-width:1.0;"/></g><!--link ce6e3703d05d9463bbc31efce771e1df to f3e22504a437a3e95c476079d46c91c1--><g id="link_ce6e3703d05d9463bbc31efce771e1df_f3e22504a437a3e95c476079d46c91c1"><path codeLine="163" d="M1877.84,357.27 C1868.17,375.93 1859.372,392.8835 1849.722,411.4935 " fill="none" id="ce6e3703d05d9463bbc31efce771e1df-to-f3e22504a437a3e95c476079d46c91c1" style="stroke:#181818;stroke-width:1.0;"/><polygon fill="#181818" points="1846.96,416.82,1854.654,410.6716,1849.2617,412.3813,1847.552,406.9889,1846.96,416.82" style="stroke:#181818;stroke-width:1.0;"/></g><!--link ce6e3703d05d9463bbc31efce771e1df to 9b2710dfe9084a45c6da1c7200d2fb29--><g id="link_ce6e3703d05d9463bbc31efce771e1df_9b2710dfe9084a45c6da1c7200d2fb29"><path codeLine="164" d="M1907.54,357.32 C1914.71,394.07 1920.85,450.21 1905,495.75 C1897.33,517.78 1886.3994,534.0919 1871.6794,550.8519 " fill="none" id="ce6e3703d05d9463bbc31efce771e1df-to-9b2710dfe9084a45c6da1c7200d2fb29" style="stroke:#181818;stroke-width:1.0;"/><polygon fill="#181818" points="1867.72,555.36,1876.6645,551.2374,1871.0195,551.6032,1870.6537,545.9582,1867.72,555.36" style="stroke:#181818;stroke-width:1.0;"/></g><!--link ce6e3703d05d9463bbc31efce771e1df to 4f0347d097b0f2b50bb0ede8e476fa2a--><g id="link_ce6e3703d05d9463bbc31efce771e1df_4f0347d097b0f2b50bb0ede8e476fa2a"><path codeLine="165" d="M1865.72,357.14 C1857.32,365.71 1847.84,374.2 1838,380.86 C1802.66,404.77 1787.31,398.07 1749,416.86 C1743.4,419.6 1742.8971,419.7381 1737.2071,422.8681 " fill="none" id="ce6e3703d05d9463bbc31efce771e1df-to-4f0347d097b0f2b50bb0ede8e476fa2a" style="stroke:#181818;stroke-width:1.0;"/><polygon fill="#181818" points="1731.95,425.76,1741.7636,424.9269,1736.3309,423.3501,1737.9077,417.9175,1731.95,425.76" style="stroke:#181818;stroke-width:1.0;"/></g><!--link f3e22504a437a3e95c476079d46c91c1 to 9b2710dfe9084a45c6da1c7200d2fb29--><g id="link_f3e22504a437a3e95c476079d46c91c1_9b2710dfe9084a45c6da1c7200d2fb29"><path codeLine="166" d="M1827,496.16 C1827,514.82 1827,531.1 1827,549.71 " fill="none" id="f3e22504a437a3e95c476079d46c91c1-to-9b2710dfe9084a45c6da1c7200d2fb29" style="stroke:#181818;stroke-width:1.0;"/><polygon fill="#181818" points="1827,555.71,1831,546.71,1827,550.71,1823,546.71,1827,555.71" style="stroke:#181818;stroke-width:1.0;"/></g><!--link cf1dd3df70f7305509a493dc7986e759 to 4f0347d097b0f2b50bb0ede8e476fa2a--><g id="link_cf1dd3df70f7305509a493dc7986e759_4f0347d097b0f2b50bb0ede8e476fa2a"><path codeLine="167" d="M1750.31,357.27 C1737.51,375.93 1725.5948,393.2627 1712.8248,411.8727 " fill="none" id="cf1dd3df70f7305509a493dc7986e759-to-4f0347d097b0f2b50bb0ede8e476fa2a" style="stroke:#181818;stroke-width:1.0;"/><polygon fill="#181818" points="1709.43,416.82,1717.8203,411.6623,1712.259,412.6973,1711.224,407.1359,1709.43,416.82" style="stroke:#181818;stroke-width:1.0;"/></g><!--SRC=[hLPDZnit3BtxLonwN20e9UhpKg3t7dihYWKbahk3s1x3Th9DY_ptqfvDciIRQ0uzp6tuzCJt7YdQRkVdtVJNj7_S7AY_fKUv- -dt8xsNxQzx_cr-d4xdgV_yqnsTxgX3SnmSIlBPLQL6BDGviQOOcjxzi-dpxZ3lPN- -2oWa2Ntl7hiK5AISoRaWu9a2t_snkRz_TzoUxkytcysVNrH6KApGClUW5GjIIw5svyMBw-IMoYvRENvugVtuBVM5RquSX5nnB52x65ye6cCE9GALuB_YstFr6LbyzSPEDHEhyoKMNnrqhDTJTnFpLfxfA3UiMua8mJf2zdF2X5L5GjUKNMwzXMizIv-FT9wFjxSMx12yhuMI5CvKL7paMfr8D9XshJ_8SJUTJjEylmNeG50RkjGLJPnGjR2opyMvnE1fQTlJFFLRyh5JD74JAfABiH8ZD0v94fSYc3-9zUP9jiRXfZuKP_ewD9KY877o35YTzycfAuZN-lUJFD_IpYb30d2OOmCsjIAdmbwqW_Uk-MlfQNhSqojMgOZiVSIBgXXDFDA26affMPCeBCLod6Wx_IslTBtcu4Fh8PclS-s5Ok6AtadBtLU9Lu2pdCwtfOrRwyw-c1nelxWa9imrDUuQQIcbm-6LAric2iGWrZMhjUPhw0LoisvXI4ktTZFBzZMR54ojIOJEhVfa5BZvPX7hhdPu2GVr9tduZbPWndHGIlLstrRLGo58r5g2xfJJScKwlNtbSAuSCRf8w3M7ADdC7QftAKcjSR4OyMxQtvHI5lD6y2PLYxdqR2aBc6hZb5gCYr87-h2pdn-UQ6yn-qJzSxQlEYpHRjHDSR51ej1KgxbK6pG22MQxrB-ETkKcbAjYCkhWpLvEWaqXhb9whPz5VjZEdSwMhbSaQwoGsRYpOaJgBPlJs-NcPfL5xCFnlsnz_78eKU_pk_rveGwbiVD0DIkYBo5rCD28fTiSLUMlgDTcanPOfK895ABzGywQ1y1Ucr-ep-V3mtipkKuB-s_wzqKZ95cO0HbiifZHpBpeB6aN7SMn_YYcDZsBAOW1j8LYnpDs4q2hPRM_kFr0fzFpVEIZdEHy0w4ebbMmQs0cb1fxo0bojJbZwUbk6DPOAs04e8OKCiF5TQMehzbvwab-45OaktMuv2L3hQrnKOKY80J5kwxV3wiP32-7rTn0VOlG6WXB4IElz39MlnFMheuPMJDeHZ2NLmeLsLPDIP9ZlSdBnyrmRRxXDxyCv-rAc94VDiFaN656ysmbp6YOhuGP2ROPBgjrRDR137kp3cOqFbV2Z1uPAs56RvsrlHci_itmRN256IsqpV2Li4wfuTfUCZLuXcs6-_SACte4RuQxUDsbXdlv_uGP9toqeAumeqMo4cQqMrV23EVDSE-jP3DQ9glO_0i0]--></g></svg>